<svg xmlns="http://www.w3.org/2000/svg" viewBox="0 0 41 41" shape-rendering="crispEdges"><path fill="#ffffff" d="M0 0h41v41H0z"/><path stroke="#000000" d="M4 4.5h7m1 0h1m1 0h1m2 0h1m2 0h1m1 0h2m4 0h1m1 0h7M4 5.5h1m5 0h1m2 0h1m1 0h4m3 0h1m1 0h1m3 0h1m1 0h1m5 0h1M4 6.5h1m1 0h3m1 0h1m5 0h1m1 0h6m2 0h2m2 0h1m1 0h3m1 0h1M4 7.5h1m1 0h3m1 0h1m1 0h1m1 0h1m4 0h3m3 0h3m2 0h1m1 0h3m1 0h1M4 8.5h1m1 0h3m1 0h1m1 0h6m2 0h2m1 0h1m2 0h1m1 0h1m1 0h1m1 0h3m1 0h1M4 9.5h1m5 0h1m1 0h2m3 0h1m1 0h1m1 0h2m1 0h1m2 0h1m2 0h1m5 0h1M4 10.5h7m1 0h1m1 0h1m1 0h1m1 0h1m1 0h1m1 0h1m1 0h1m1 0h1m1 0h1m1 0h7M12 11.5h1m3 0h2m3 0h1m1 0h5M4 12.5h1m3 0h1m1 0h3m1 0h3m1 0h2m1 0h1m5 0h1m1 0h5m2 0h1M7 13.5h1m3 0h2m1 0h2m2 0h1m2 0h1m1 0h1m1 0h1m2 0h1m2 0h2m1 0h3M6 14.5h2m1 0h2m1 0h1m1 0h2m1 0h2m1 0h1m1 0h2m1 0h2m4 0h1m2 0h2M8 15.5h2m3 0h1m2 0h2m1 0h2m2 0h1m1 0h1m1 0h1m3 0h1m1 0h1M5 16.5h1m1 0h1m2 0h1m3 0h1m1 0h2m1 0h2m2 0h1m1 0h1m2 0h3m1 0h1m2 0h1M4 17.5h2m1 0h2m3 0h1m4 0h2m3 0h3m4 0h2m4 0h2M4 18.5h3m3 0h3m3 0h4m4 0h3m4 0h2M8 19.5h2m1 0h3m2 0h1m1 0h4m3 0h3m3 0h2M10 20.5h1m3 0h1m1 0h1m1 0h1m2 0h5m3 0h1m1 0h1m1 0h1m1 0h2M6 21.5h2m1 0h1m2 0h4m1 0h1m4 0h3m3 0h4m1 0h2m1 0h1M4 22.5h1m1 0h1m2 0h4m2 0h2m1 0h1m1 0h2m2 0h4m1 0h3m1 0h1m1 0h2M4 23.5h2m1 0h2m2 0h3m1 0h5m1 0h6m2 0h1m1 0h3M4 24.5h2m1 0h1m2 0h1m2 0h1m2 0h4m2 0h1m1 0h1m2 0h2m1 0h1m1 0h1m1 0h3M4 25.5h3m1 0h2m5 0h1m1 0h1m2 0h2m1 0h1m1 0h1m2 0h4m3 0h2M7 26.5h2m1 0h1m1 0h5m3 0h2m1 0h1m2 0h3m4 0h1M6 27.5h1m2 0h1m1 0h1m3 0h1m1 0h2m4 0h7m1 0h2m2 0h1M4 28.5h2m4 0h1m1 0h2m1 0h1m3 0h2m1 0h1m1 0h1m1 0h1m1 0h6m2 0h1M12 29.5h2m1 0h2m2 0h1m1 0h1m3 0h2m1 0h1m3 0h1m2 0h2M4 30.5h7m1 0h1m3 0h1m1 0h1m1 0h1m1 0h1m4 0h2m1 0h1m1 0h4M4 31.5h1m5 0h1m3 0h2m1 0h2m7 0h1m1 0h1m3 0h2M4 32.5h1m1 0h3m1 0h1m1 0h2m4 0h1m1 0h1m5 0h1m1 0h6m1 0h1M4 33.5h1m1 0h3m1 0h1m2 0h3m2 0h1m3 0h3m3 0h4m2 0h3M4 34.5h1m1 0h3m1 0h1m2 0h2m1 0h1m2 0h1m1 0h2m1 0h4m3 0h2M4 35.5h1m5 0h1m2 0h1m1 0h2m2 0h2m1 0h1m2 0h3m4 0h4M4 36.5h7m1 0h1m4 0h1m2 0h2m1 0h3m2 0h2m1 0h1m2 0h3"/></svg>
